<?xml version='1.0' encoding='utf-8'?>
<svg xmlns="http://www.w3.org/2000/svg" viewBox="45.58 173.83 117.38 84.04" version="1.1" id="svg5">
  <defs id="defs2" />
  <g id="layer1">
    <path style="fill:#DEA843;stroke-width:0.352778" d="m 139.34168,249.59958 c -0.29104,-0.0837 -1.01628,-1.13679 -1.61163,-2.34033 -1.93522,-3.91208 -5.63629,-5.89768 -11.44114,-6.13806 -1.84327,-0.0763 -3.69107,-0.20967 -4.10623,-0.2963 -1.00837,-0.21042 -1.33363,-1.17902 -0.64969,-1.93476 0.50985,-0.56338 0.45721,-0.66717 -0.67814,-1.33704 -1.4334,-0.84573 -3.17099,-3.11074 -3.76339,-4.90572 -1.11616,-3.382 0.94347,-7.93374 4.38426,-9.6891 2.01,-1.02542 5.61974,-0.99703 7.80617,0.0614 5.41263,2.62021 6.41452,9.67785 1.91997,13.52502 l -1.37501,1.17696 3.08172,1.16992 c 2.66039,1.00997 3.40139,1.48943 5.41985,3.50687 1.88556,1.88459 2.46364,2.73511 2.98658,4.39406 0.63415,2.01175 0.63361,2.06799 -0.0243,2.54907 -0.6782,0.49591 -0.98151,0.53606 -1.94901,0.258 z M 128.96343,234.6419 c 2.88288,-2.69332 2.47777,-6.97075 -0.84395,-8.91073 -1.39283,-0.81347 -3.83487,-0.85076 -5.32286,-0.0813 -3.67335,1.89956 -3.60801,7.90592 0.1043,9.58766 1.71683,0.77774 4.93042,0.46201 6.06251,-0.59564 z m -61.418691,14.53818 c -0.09334,-0.0934 -0.169718,-0.78459 -0.169718,-1.53609 0,-3.55669 4.068173,-7.53429 9.644436,-9.42972 l 1.715184,-0.58301 -1.38424,-0.95928 c -2.905957,-2.01383 -4.002059,-6.00228 -2.566574,-9.33916 2.462565,-5.72439 9.58125,-7.43379 14.087033,-3.3827 4.176624,3.75514 3.693893,9.95678 -1.034729,13.29325 l -0.881944,0.6223 0.881944,0.69225 0.881944,0.69226 -0.881944,0.6977 c -0.737538,0.58348 -1.434638,0.699 -4.257498,0.70556 -3.703761,0.009 -6.297239,0.61058 -8.709501,2.02156 -1.925454,1.12623 -3.806874,3.32866 -4.423121,5.17778 -0.428614,1.28612 -0.611843,1.45415 -1.607654,1.47429 -0.618144,0.0125 -1.200277,-0.0537 -1.293618,-0.14699 z m 18.075143,-14.20042 c 3.722716,-1.80213 3.936097,-7.31386 0.36739,-9.48972 -1.381142,-0.8421 -4.091252,-0.93373 -5.53497,-0.18716 -3.219707,1.66498 -4.123351,5.6733 -1.880041,8.33933 1.789649,2.12687 4.395484,2.62143 7.047621,1.33755 z m 1.684567,13.78759 c -0.625112,-1.96956 1.531909,-6.25237 4.589547,-9.11264 2.066639,-1.93324 3.44933,-2.68403 8.027536,-4.35891 l 1.325678,-0.48499 -1.825215,-1.21985 c -4.203707,-2.80947 -5.088858,-8.84591 -1.851678,-12.62783 2.403196,-2.80759 5.911503,-3.83386 9.280623,-2.71482 2.25055,0.74751 3.64219,1.89023 4.8928,4.01762 0.8201,1.39505 0.96322,2.03552 0.96322,4.3104 0,2.35681 -0.12601,2.8768 -1.06861,4.40972 -0.60233,0.97953 -1.80477,2.23282 -2.75569,2.8722 l -1.68708,1.13438 0.9918,0.21673 c 5.93122,1.29612 10.03314,4.1917 12.31381,8.69239 0.61127,1.20627 0.95472,2.47474 0.9825,3.62864 l 0.0427,1.77405 h -1.39011 c -1.38022,0 -1.39421,-0.0138 -1.96691,-1.94302 -1.50424,-5.06716 -5.36481,-8.07256 -11.81166,-9.19523 -5.80951,-1.01169 -12.271394,2.15272 -14.755422,7.22577 -0.519173,1.06028 -0.943949,2.16292 -0.943949,2.45031 0,1.23505 -0.437815,1.63856 -1.777859,1.63856 -1.044762,0 -1.400743,-0.16115 -1.576045,-0.71348 z m 19.659761,-17.50879 c 2.59411,-1.30408 3.60652,-5.42971 1.94336,-7.91931 -2.2042,-3.29948 -7.38672,-3.233 -9.431678,0.121 -0.820903,1.34638 -0.918365,3.66372 -0.223174,5.30622 1.225492,2.89539 4.685182,4.01344 7.711492,2.49209 z m -52.289189,11.06497 c -1.279207,-0.64329 -1.339437,-2.31752 -0.165379,-4.59703 1.717668,-3.33496 4.377972,-5.3993 9.161212,-7.10889 0.675517,-0.24144 0.668009,-0.27654 -0.176389,-0.82442 -1.710284,-1.1097 -3.444786,-3.274 -3.8856,-4.84843 -1.113254,-3.97615 1.211936,-8.53509 5.121885,-10.04234 1.709008,-0.6588 4.817544,-0.51202 6.414936,0.30291 3.649916,1.86204 5.652851,6.90265 3.253158,8.18693 -1.093548,0.58525 -1.73198,0.16081 -1.733476,-1.15244 -7.06e-4,-0.63668 -0.316773,-1.67499 -0.702331,-2.30735 -2.756045,-4.52028 -9.524266,-2.57511 -9.524266,2.73725 0,3.18544 2.244407,5.18839 6.258821,5.58547 l 2.379454,0.23536 0.317863,1.50919 c 0.281443,1.33628 0.223997,1.60911 -0.501396,2.38125 -0.702945,0.74825 -1.134205,0.87206 -3.037585,0.87206 -4.714311,0 -9.187706,2.95781 -10.779997,7.12773 -0.455058,1.19171 -0.982983,2.21614 -1.173169,2.2765 -0.19019,0.0604 -0.742671,-0.0898 -1.227741,-0.33375 z m 97.420809,-0.16284 c -0.17789,-0.33955 -0.42626,-1.09704 -0.55191,-1.68332 -0.42509,-1.9834 -2.68327,-4.47803 -5.22923,-5.77678 -1.9003,-0.96938 -2.87495,-1.2306 -5.102,-1.3674 -3.63988,-0.22359 -3.98767,-0.43057 -3.98767,-2.37319 0,-1.78297 0.35169,-2.0847 2.79252,-2.39582 3.33714,-0.42537 6.35849,-3.94468 5.82552,-6.78564 -0.13496,-0.71939 -0.69222,-1.81692 -1.23836,-2.43894 -2.94283,-3.35169 -8.43802,-1.75327 -8.43802,2.45442 0,0.84679 -0.12063,1.61417 -0.26808,1.7053 -0.50862,0.31435 -2.48739,-0.76909 -2.71513,-1.48662 -0.41987,-1.32292 0.48688,-3.56799 2.08757,-5.16868 3.91638,-3.91638 10.30096,-2.713 12.95673,2.4421 0.56817,1.10286 0.68324,1.87971 0.57484,3.88056 -0.161,2.97144 -1.32165,5.04431 -3.51456,6.27679 -1.61465,0.90748 -1.73032,1.34014 -0.35827,1.34014 1.45291,0 5.0661,1.91776 6.70953,3.56119 2.42137,2.42136 3.75977,5.92257 3.01047,7.87523 -0.2955,0.77004 -2.14189,0.72714 -2.55395,-0.0593 z M 86.595782,217.01607 c -0.12301,-0.19904 -0.229422,-1.36135 -0.23647,-2.58293 -0.01478,-2.56523 0.750499,-4.36659 2.592433,-6.10209 1.222802,-1.15214 4.486574,-2.94754 5.358197,-2.94754 0.275025,0 1.814078,-0.65769 3.42012,-1.46154 2.183698,-1.09298 3.061388,-1.37302 3.480438,-1.1105 0.84813,0.53132 0.85451,1.62162 0.0157,2.68796 -0.92129,1.17122 -2.127532,1.81391 -5.165781,2.75233 -4.273663,1.32 -6.346761,3.43909 -6.556703,6.70217 -0.05457,0.84814 -0.22335,1.74052 -0.375066,1.98305 -0.331717,0.53028 -2.217653,0.58917 -2.532895,0.0791 z m 32.536768,0.14349 c -0.13859,-0.13859 -0.25286,-0.82083 -0.25395,-1.5161 -0.006,-3.73316 -2.04352,-6.0631 -6.642,-7.59453 -3.49819,-1.16501 -5.0923,-2.527 -4.92841,-4.21078 0.13335,-1.37014 1.28332,-1.65159 2.58015,-0.6315 0.48577,0.38211 2.36435,1.26863 4.17461,1.97005 5.68944,2.20447 7.71048,4.64046 7.77829,9.37528 l 0.0379,2.64959 -1.24733,0.10498 c -0.68604,0.0577 -1.36072,-0.008 -1.49931,-0.14699 z M 82.845197,206.78915 c -1.96814,-1.03984 -3.752296,-3.36734 -4.542575,-5.92596 -1.175967,-3.80734 -0.757406,-5.71023 1.256016,-5.71023 1.036186,0 1.574073,0.9248 1.576684,2.71083 0.0037,2.55316 0.665896,4.00185 2.7273,5.96682 1.949122,1.85793 1.9578,1.87545 1.371886,2.76966 -0.6965,1.063 -0.729851,1.06563 -2.389311,0.18888 z m 40.475843,-0.41047 c -0.51411,-0.73399 -0.44462,-0.8575 1.53828,-2.73402 1.66454,-1.57525 2.18754,-2.34562 2.63509,-3.88143 0.30712,-1.05386 0.55839,-2.44632 0.55839,-3.09437 0,-0.92856 0.19567,-1.26741 0.92338,-1.59898 2.37048,-1.08006 2.97868,3.33685 1.01278,7.35502 -1.06263,2.17193 -3.92468,4.7225 -5.29923,4.7225 -0.45664,0 -1.07255,-0.34592 -1.36869,-0.76872 z M 88.900045,201.4945 c -1.481645,-0.34838 -2.537943,-1.50202 -3.369899,-3.68047 -0.49911,-1.3069 -0.540614,-1.7978 -0.21282,-2.51723 0.333124,-0.73113 0.614599,-0.87365 1.547146,-0.78337 0.999557,0.0968 1.164974,0.26241 1.343257,1.34508 0.284544,1.72797 0.873891,2.6845 2.100386,3.40901 0.580687,0.34302 1.055794,0.87519 1.055794,1.18261 0,0.55603 -0.670511,1.43839 -1.040695,1.36949 -0.106715,-0.0199 -0.747141,-0.16616 -1.423169,-0.32512 z m 13.044915,0.0316 c -5.071883,-1.54279 -7.952854,-7.08219 -6.525409,-12.54676 0.700013,-2.67982 2.095733,-4.64867 4.251424,-5.99723 1.516955,-0.94897 1.986255,-1.05833 4.541655,-1.05833 2.46875,0 3.06902,0.12882 4.4884,0.96322 3.30459,1.94265 4.93831,4.86592 4.97515,8.90223 0.0531,5.81935 -3.79698,10.12057 -8.98358,10.03617 -1.02488,-0.0167 -2.26132,-0.15136 -2.74764,-0.29929 z m 4.27117,-2.89425 c 2.65993,-0.89091 4.18228,-3.37713 4.18228,-6.8303 0,-3.66208 -1.62535,-6.08609 -4.62189,-6.89297 -3.54983,-0.95587 -6.384169,1.14064 -7.346318,5.43394 -1.168495,5.21406 3.171648,9.83482 7.785928,8.28933 z m 11.26574,2.18872 c -0.51114,-0.95508 -0.49262,-0.9975 0.70646,-1.61757 1.05866,-0.54745 1.86674,-1.89805 2.26491,-3.78548 0.16386,-0.7767 0.40028,-0.97014 1.18572,-0.97014 0.53958,0 1.17156,0.1905 1.40439,0.42334 1.05393,1.05392 -0.0591,4.88343 -1.76711,6.07974 -1.14306,0.80064 -3.33655,0.72555 -3.79437,-0.12989 z" id="path1988" />
  </g>
</svg>