<?xml version='1.0' encoding='utf-8'?>
<svg xmlns="http://www.w3.org/2000/svg" viewBox="31.04 82.82 104.54 79.08" version="1.1" id="svg5">
  <defs id="defs2" />
  <g id="layer1">
    <path style="fill:#DEA843;stroke-width:0.352778" d="m 75.298633,154.13393 c -0.643562,-0.64357 -0.640133,-0.60203 -0.201704,-2.44425 0.184707,-0.77611 0.675022,-3.31611 1.089593,-5.64444 0.78179,-4.39077 1.072589,-5.11899 2.040523,-5.10988 1.498621,0.0141 1.539938,0.38223 0.595954,5.30967 -0.497053,2.59454 -0.903732,4.92067 -0.903732,5.16919 0,0.36087 3.338417,0.45185 16.580555,0.45185 11.594748,0 16.580558,-0.11409 16.580558,-0.37942 0,-0.20869 -0.61583,-1.439 -1.3685,-2.73403 -0.75267,-1.29503 -1.94529,-3.50554 -2.65027,-4.91224 l -1.28177,-2.55764 H 94.495387 83.210934 v -0.83875 c 0,-1.68174 0.109188,-1.69458 16.561444,-1.94775 l 15.512812,-0.23872 0.89621,-0.84194 c 0.51699,-0.4857 0.8962,-1.2326 0.8962,-1.76523 0,-1.29451 -3.00013,-12.08562 -4.08967,-14.71005 -0.49649,-1.19592 -1.17924,-2.42465 -1.51723,-2.73052 -0.33798,-0.30588 -2.58814,-1.20258 -5.00034,-1.99267 -4.89576,-1.60356 -5.97332,-2.16667 -5.97332,-3.12153 0,-1.83171 1.66541,-1.80577 7.53624,0.11736 6.44965,2.11276 7.23375,2.93656 9.20353,9.66942 2.57976,8.81783 3.11863,11.32253 2.89542,13.45803 l -0.21099,2.01871 3.42887,0.21224 c 1.88588,0.11673 3.78606,0.31682 4.22263,0.44463 0.85196,0.24943 1.10551,1.4862 0.35278,1.72078 -0.24254,0.0756 -4.55591,0.23002 -9.58528,0.34319 -5.02937,0.11316 -9.23023,0.29168 -9.33525,0.39671 -0.10503,0.10502 0.0296,0.54092 0.2992,0.96866 2.38258,3.78024 6.00732,10.45184 6.0083,11.05871 7e-4,0.4158 -0.24989,0.85237 -0.5568,0.97014 -0.30691,0.11777 -9.18557,0.21413 -19.730356,0.21413 -16.959026,0 -19.236333,-0.064 -19.726701,-0.55436 z m -36.439737,-2.35606 c -1.019172,-1.31715 -0.839806,-1.69851 1.228054,-2.61104 1.113956,-0.49159 2.092145,-0.95911 2.173757,-1.03895 0.08161,-0.0798 -0.188627,-0.50388 -0.600523,-0.94232 -1.916582,-2.04011 -2.243085,-4.96292 -1.312623,-11.75044 1.392368,-10.15703 2.195855,-11.21405 10.553365,-13.88341 3.896966,-1.24467 4.917065,-1.27572 5.07698,-0.15455 0.186143,1.30504 -1.311815,2.46699 -4.51697,3.50378 -3.779556,1.22259 -5.372855,2.22054 -6.14577,3.84935 -0.934649,1.96962 -2.049441,9.75018 -1.883812,13.14784 0.119662,2.45465 0.271342,3.04636 0.972178,3.79236 1.073005,1.14216 1.529027,1.12613 8.880972,-0.31226 3.362663,-0.6579 7.542681,-1.37996 9.288931,-1.60459 4.714984,-0.60652 4.762499,-0.62244 4.762499,-1.59568 0,-1.60739 -1.105298,-1.95356 -6.237696,-1.95356 -2.568275,0 -5.879517,0.17996 -7.358312,0.3999 -3.851078,0.57277 -3.962559,0.42254 -3.219743,-4.33918 0.398198,-2.55259 0.749117,-3.77273 1.17451,-4.08379 1.55406,-1.13636 2.36945,-0.0824 2.271723,2.93629 l -0.07422,2.29279 3.282287,-0.2192 c 1.805259,-0.12056 3.449817,-0.26882 3.654576,-0.32946 0.204756,-0.0606 1.691616,0.0228 3.304131,0.1853 2.193082,0.22108 3.266334,0.51691 4.259283,1.17401 2.330239,1.54208 3.60021,5.40488 2.19504,6.67654 -0.658572,0.596 -1.23637,0.72914 -13.459353,3.10127 -4.159074,0.80715 -9.758521,2.08235 -12.44322,2.83377 -5.522521,1.54568 -5.365277,1.52071 -5.82604,0.92523 z m 43.20551,-2.62443 c -0.876325,-0.229 -0.765334,-1.04598 0.176389,-1.29835 1.260228,-0.33773 11.323467,-0.24548 11.883566,0.10894 0.419749,0.26561 0.427453,0.41571 0.045,0.87654 -0.386955,0.46626 -1.351823,0.54945 -5.974534,0.51513 -3.032182,-0.0225 -5.790869,-0.11352 -6.130417,-0.20226 z m 16.102191,-1.43251 c -0.521994,-0.92163 -1.174309,-2.04351 -1.449585,-2.49305 -0.390066,-0.63701 -0.407924,-0.92891 -0.08093,-1.32292 0.659899,-0.79513 1.243809,-0.60437 2.342606,0.76531 l 1.019525,1.27086 1.024747,-1.53544 c 1.38051,-2.06851 1.9356,-2.51037 2.53195,-2.01545 0.70661,0.58644 0.5794,1.28499 -0.62826,3.45008 -2.25618,4.04485 -3.300572,4.45747 -4.760053,1.88061 z m -15.308441,-2.91042 c 0,-0.64373 0.255019,-0.71077 2.910416,-0.76505 2.950143,-0.0603 5.606179,-0.0524 6.669751,0.0198 0.404082,0.0275 0.52742,0.25734 0.399827,0.74524 -0.17333,0.66282 -0.481195,0.70556 -5.08225,0.70556 -4.662558,-1e-5 -4.897744,-0.0339 -4.897744,-0.70557 z m -12.347222,-5.99722 c -0.609561,-0.60956 -0.705555,-1.17592 -0.705555,-4.16278 0,-4.70725 0.52627,-5.21013 3.213548,-3.07072 0.851923,0.67823 2.730581,1.72748 4.174793,2.33165 3.048892,1.27548 4.253949,1.23926 8.062658,-0.24236 4.000553,-1.55624 11.712888,-5.45205 11.712888,-5.91664 0,-0.79118 -0.823002,-1.28637 -2.137942,-1.28637 -0.713525,0 -3.874058,0.9616 -7.063761,2.14916 -7.351391,2.737 -7.663261,2.70433 -14.004046,-1.46735 -1.41254,-0.92933 -3.63504,-2.03058 -4.938889,-2.44725 -4.23521,-1.35341 -4.310916,-1.39738 -4.310916,-2.50397 0,-1.43295 1.088951,-1.59178 4.536133,-0.66163 2.214824,0.59762 3.698219,1.32519 6.634677,3.25417 4.463581,2.93214 5.58788,3.19259 8.761134,2.02955 9.026027,-3.30816 11.980996,-3.82577 14.181376,-2.48412 1.594008,0.97193 2.218688,3.25667 1.248696,4.56711 -1.042518,1.40843 -2.999507,2.58707 -8.799554,5.29975 -8.542845,3.99549 -10.220579,4.20709 -15.317974,1.93198 -1.479628,-0.6604 -2.811431,-1.20073 -2.959555,-1.20073 -0.148128,0 -0.171951,0.82213 -0.05295,1.82696 0.312096,2.63516 -0.712068,3.57629 -2.234766,2.05359 z m 32.469616,-2.62888 c -0.80357,-0.96824 -0.23005,-1.76138 2.10261,-2.90776 1.26118,-0.6198 2.42843,-1.18087 2.5939,-1.24681 0.16547,-0.0659 0.0464,-0.9767 -0.26458,-2.02392 -0.70262,-2.36598 -0.72193,-4.02913 -0.0532,-4.58412 0.82569,-0.68526 1.65192,-0.28096 2.13404,1.04427 0.24706,0.6791 0.71964,1.99216 1.05018,2.91793 0.42065,1.17813 0.91553,1.84586 1.64921,2.22526 1.09894,0.56829 1.23356,1.4437 0.29879,1.94302 -0.86692,0.46308 -8.28819,3.14435 -8.703,3.14435 -0.21056,0 -0.57412,-0.2305 -0.80793,-0.51222 z M 79.065022,123.39478 c -1.383756,-0.26644 -1.561627,-1.20253 -0.695558,-3.66055 1.072018,-3.04253 2.690605,-4.56558 6.328167,-5.95463 3.570636,-1.3635 7.147185,-2.27689 7.85381,-2.00573 0.316424,0.12142 0.53727,0.64241 0.53727,1.26744 0,1.36513 -0.625521,1.74467 -5.291667,3.21077 -4.269365,1.34143 -5.68386,2.44215 -6.352885,4.94363 -0.418218,1.56373 -0.944834,2.49089 -1.363225,2.4001 -0.121765,-0.0264 -0.578926,-0.11689 -1.015912,-0.20103 z m -22.262065,-3.83212 c -2.487273,-1.26149 -4.771516,-4.2832 -5.352153,-7.08012 -0.704663,-3.39433 0.11007,-6.47305 2.377013,-8.98229 3.987355,-4.413522 10.876586,-4.297299 14.88019,0.25103 3.356472,3.81316 3.409586,9.5626 0.122118,13.21906 -2.220504,2.46973 -3.864723,3.23603 -7.315024,3.4092 -2.52851,0.1269 -3.01891,0.0419 -4.712144,-0.81688 z m 6.024107,-2.28434 c 0.721579,-0.2004 1.81573,-0.78826 2.431447,-1.30635 3.282043,-2.76166 3.214034,-8.89334 -0.126432,-11.39923 -0.980998,-0.7359 -1.53549,-0.86083 -3.820827,-0.86083 -2.402886,0 -2.808217,0.1029 -4.007149,1.01738 -3.428012,2.61467 -3.543187,8.46152 -0.221735,11.25634 0.624649,0.52561 1.56005,1.04886 2.078672,1.16279 0.518622,0.11393 1.1017,0.2601 1.295728,0.32482 0.627768,0.20942 1.035018,0.17593 2.370296,-0.19492 z m 30.603623,-7.20795 c -5.519547,-1.77452 -8.514941,-9.41802 -5.770566,-14.725058 2.439296,-4.71708 8.283391,-6.662991 13.032539,-4.339452 4.49071,2.1971 6.6106,7.986959 4.74753,12.96646 -0.76437,2.04298 -3.20199,4.69939 -5.26493,5.73751 -1.636221,0.82338 -4.781891,0.99154 -6.744573,0.36054 z m 6.360801,-4.02961 c 4.253812,-3.4195 3.754232,-9.930125 -0.946947,-12.340691 -1.056492,-0.541722 -3.772002,-0.496471 -5.166272,0.08609 -1.424266,0.595094 -2.861048,2.259792 -3.424851,3.968126 -0.792261,2.400575 0.227782,6.354655 2.068844,8.019635 2.031079,1.83682 5.367902,1.95603 7.469226,0.26684 z" id="path1775" />
  </g>
</svg>