<?xml version='1.0' encoding='utf-8'?>
<svg xmlns="http://www.w3.org/2000/svg" viewBox="75.45 146.14 81.24 64.01" version="1.1" id="svg5">
  <defs id="defs2" />
  <g id="layer1">
    <path id="path1227" style="fill:#DEA843;stroke-width:0.999999" transform="scale(0.26458333)" d="m 568.02148,573.53516 c -2.9483,-0.20797 -9.9186,2.62298 -18.29687,7.51172 -30.72563,17.92841 -55.61366,47.18512 -66.03125,77.62109 -3.55809,10.39529 -4.54616,24.51612 -2.05274,29.33789 0.91779,1.77479 2.0984,2.96018 2.625,2.63476 0.52661,-0.32541 0.95899,-0.11371 0.95899,0.46876 0,0.58246 0.36918,1.05859 0.82227,1.05859 0.45297,0 0.8527,-4.16253 0.88671,-9.25 0.0652,-9.71414 2.74596,-21.73987 5.01368,-22.49219 0.70389,-0.23354 2.60267,2.39342 4.47656,6.19336 2.50851,5.0869 3.41559,6.19328 3.95508,4.82422 0.96582,-2.45121 0.0451,-7.23378 -2.6875,-13.95703 l -2.31055,-5.68555 3.05273,-6.04883 c 7.23519,-14.33291 21.72567,-32.3723 34.99219,-43.5625 6.709,-5.65901 23.19354,-17.16778 28.54883,-19.93164 2.07364,-1.07013 2.24767,-0.94183 2.23633,1.625 -0.027,5.70686 -3.93358,21.51811 -6.32032,25.58008 -1.35896,2.313 -6.21171,7.89677 -10.7832,12.4082 -4.5716,4.51144 -8.10277,8.40769 -7.84765,8.66016 0.25519,0.25247 3.9549,-0.47353 8.2207,-1.61328 4.2658,-1.13979 7.96445,-1.86172 8.2207,-1.60547 0.98189,0.98185 -5.6324,16.60885 -9.21679,21.77539 -3.61372,5.20887 -4.03356,5.48427 -10.78516,7.05273 -3.864,0.89764 -7.57653,1.9724 -8.25,2.38868 -2.50553,1.54843 -1.08393,2.64057 3.52539,2.70898 9.0768,0.13429 9.20883,0.62109 2.46094,8.98242 -3.3058,4.09633 -8.2611,9.92229 -11.01172,12.94727 -3.4461,3.78984 -4.64233,5.76193 -3.84961,6.34375 0.74286,0.54538 0.57478,0.66268 -0.47461,0.33008 -1.93281,-0.61248 -8.30531,5.65343 -9.38281,9.22656 -0.60031,1.99075 -0.43389,2.29095 0.9707,1.75195 8.795,-3.37493 27.62544,-21.20003 36.68164,-34.72265 9.97198,-14.89017 17.57553,-31.87466 18.10742,-40.44727 0.2431,-3.91824 0.19086,-3.98414 -3.25195,-4.07031 -1.92499,-0.048 -3.87046,-0.16081 -4.32227,-0.25 -1.13427,-0.2242 1.26956,-2.37655 4.53125,-4.0586 3.71653,-1.91663 6.42157,-8.193 8.30664,-19.26562 2.00123,-11.75441 1.68032,-22.69075 -0.70898,-24.19141 -0.24932,-0.15659 -0.58858,-0.24958 -1.00977,-0.27929 z m -2.5039,1.77343 c 0.27822,-0.0234 0.5982,-0.0119 0.95703,0.0391 1.23749,0.17574 2.14211,0.77031 2.01172,1.32031 -0.37569,1.58419 -4.26172,1.39518 -4.26172,-0.20703 0,-0.6857 0.45831,-1.08212 1.29297,-1.15235 z m -3.08203,0.9336 c 0.12955,0.004 0.23744,0.0421 0.31445,0.11914 0.3078,0.30788 -0.24619,0.8665 -1.23242,1.24219 -1.42519,0.54266 -1.54073,0.42708 -0.56055,-0.56055 0.50879,-0.51256 1.08986,-0.81225 1.47852,-0.80078 z m -229.50782,26.96484 c -5.99715,0.10064 -9.09985,0.62682 -11.0039,1.60742 -10.40512,5.35877 -14.72786,12.42908 -15.46094,25.28711 -0.63171,11.07893 1.35762,18.50799 6.47461,24.17188 6.15942,6.8177 7.94558,7.3727 24.28516,7.54883 l 14.5,0.15625 0.0644,13.84375 c 0.0351,7.61431 -0.35093,20.91882 -0.85742,29.56445 -0.78448,13.38773 -0.6736,16.83379 0.75,23.23242 2.93469,13.19112 10.62717,22.26095 22.39258,26.4043 4.4136,1.55433 7.61523,1.77961 20.93164,1.47461 25.2305,-0.57763 31.89844,-1.2385 34.46875,-3.41993 2.2123,-1.87766 2.21924,-1.93455 0.31054,-3.41015 -1.5552,-1.20246 -5.39977,-1.5 -19.33398,-1.5 -13.52349,0 -17.27809,-0.27806 -16.875,-1.25 2.59582,-6.25977 2.92462,-8.94389 1.74023,-14.23633 -0.67472,-3.01474 -1.64939,-5.74118 -2.16601,-6.06055 -0.51659,-0.31925 -1.56093,-1.78993 -2.32032,-3.26757 l -1.38085,-2.68555 22.55664,-0.26758 c 22.92098,-0.27156 26.60216,-0.86157 24.10937,-3.86523 -0.89968,-1.08393 -5.719,-1.35723 -23.26172,-1.31641 -35.88939,0.0833 -39.32653,0.94228 -40.32422,10.08594 -0.38453,3.52346 -0.0555,4.80687 1.71094,6.67773 2.42279,2.56623 3.13956,2.35496 3.49219,-1.0332 0.13077,-1.25492 0.29531,-2.83493 0.36523,-3.50977 0.1838,-1.76693 4.59155,-4.41492 6.27344,-3.76953 2.29621,0.88112 4.9692,6.80556 5.0293,11.14453 0.0671,4.85851 -1.51588,7.60863 -6.29297,10.92774 -3.58348,2.4898 -3.66006,2.4985 -8,0.82031 -2.40998,-0.93188 -5.53808,-2.75829 -6.95117,-4.05859 -1.41321,-1.3002 -2.94755,-2.02174 -3.41016,-1.60157 -0.46261,0.42021 -0.51506,0.19909 -0.11719,-0.49218 0.39803,-0.69124 -0.12721,-2.49125 -1.16601,-4 -5.2125,-7.57096 -5.33781,-9.30659 -3.89063,-53.74219 0.71713,-22.02115 0.60069,-27.50312 -0.76172,-35.81445 -1.95122,-11.90272 -6.26596,-23.47083 -11.58398,-31.0625 -3.58269,-5.11435 -3.74707,-5.60788 -1.73047,-5.19141 1.2257,0.25311 8.97849,0.7294 17.22852,1.05859 8.24999,0.32905 26.475,1.2297 40.5,2 14.02499,0.77031 30.9,1.65909 37.5,1.97657 18.4608,0.88766 28.68911,1.55771 32.2207,2.10937 4.11549,0.6429 8.82065,4.60324 11.34375,9.54883 1.08699,2.13082 2.21603,3.875 2.50781,3.875 0.5901,0 3.42774,-6.44862 3.42774,-7.78906 0,-0.4687 -1.6234,-2.74846 -3.60743,-5.06641 -5.74159,-6.70775 -8.92267,-7.82524 -24.39257,-8.56641 -7.425,-0.35573 -20.24998,-1.06592 -28.5,-1.57812 -8.24999,-0.51224 -23.77503,-1.40237 -34.5,-1.97852 -10.72502,-0.57615 -27.79128,-1.49204 -37.92578,-2.03515 -13.48065,-0.72242 -22.37199,-1.04791 -28.36915,-0.94727 z m 13.29493,2.08399 c 0.63437,0 1.26875,0.0618 1.75,0.1875 0.96249,0.25133 0.17499,0.45898 -1.75,0.45898 -1.92499,0 -2.7125,-0.20727 -1.75,-0.45898 0.48124,-0.12567 1.11562,-0.1875 1.75,-0.1875 z m 5.91796,0 c 0.34741,0.0143 0.64639,0.10732 0.8125,0.27343 0.3323,0.33211 -0.25842,0.56886 -1.3125,0.52539 -1.165,-0.048 -1.40317,-0.28609 -0.60546,-0.60546 0.36094,-0.14438 0.75806,-0.20768 1.10546,-0.19336 z m 22.08204,1.00781 c 0.45312,0 0.90625,0.0683 1.25,0.20703 0.68749,0.27723 0.12499,0.50391 -1.25,0.50391 -1.37511,0 -1.9375,-0.22649 -1.25,-0.50391 0.34374,-0.13871 0.79687,-0.20703 1.25,-0.20703 z m 17.48632,0.88476 c 1.77773,0.0666 3.62506,0.35606 3.90235,0.80469 0.2784,0.45037 -0.82513,0.62363 -2.45313,0.38477 -2.4071,-0.35328 -2.84579,-0.13381 -2.34179,1.17968 0.34091,0.88846 0.45983,1.60081 0.26367,1.57813 -0.55608,-0.0593 -2.85742,-2.8135 -2.85742,-3.41992 0,-0.43835 1.7086,-0.59394 3.48632,-0.52735 z m -6.60546,0.11329 c 0.54375,0.007 1.05017,0.0778 1.38867,0.21484 0.6771,0.2739 -0.11954,0.47983 -1.76953,0.46094 -1.65003,-0.0204 -2.20336,-0.24444 -1.23047,-0.49805 0.4865,-0.12643 1.06757,-0.18454 1.61133,-0.17773 z m 19.98828,0.99218 c 0.725,0.004 1.41452,0.0683 1.89258,0.19336 0.95599,0.25009 -0.0617,0.44689 -2.26172,0.43555 -2.19999,-0.0111 -2.98228,-0.21584 -1.73828,-0.45508 0.62194,-0.12019 1.38242,-0.17732 2.10742,-0.17383 z m 8.4414,0.42969 c 1.01529,-0.0776 2.68946,0.41545 2.68946,0.99414 0,0.18259 -0.8678,0.26567 -1.92969,0.18555 -1.0619,-0.08 -1.72311,-0.48272 -1.46875,-0.89453 0.1056,-0.17089 0.37055,-0.25928 0.70898,-0.28516 z m -29.39258,1.57422 c 0.34741,0.0143 0.64639,0.10537 0.8125,0.27148 0.3323,0.33245 -0.25838,0.56886 -1.3125,0.52539 -1.165,-0.048 -1.40317,-0.28414 -0.60546,-0.60351 0.36096,-0.14438 0.75806,-0.20768 1.10546,-0.19336 z m -54.49414,1.12305 c 2.34161,0.13278 4.72874,1.08184 7.03321,2.89453 3.43952,2.70553 9.23038,11.60871 9.69726,14.9082 0.32822,2.3187 0.0531,2.46174 -5.15429,2.70703 -7.39121,0.34836 -9.67068,0.94421 -10.34571,2.70313 -0.3123,0.81384 0.19958,2.24836 1.13867,3.1875 2.30419,2.30471 2.26651,10.08406 -0.0664,13.64453 h 0.002 c -2.13108,3.25258 -5.82144,3.55628 -10.26953,0.84375 -5.33151,-3.25123 -6.8213,-6.66422 -7.27148,-16.66602 -0.34991,-7.7743 -0.0976,-9.68395 1.8164,-13.75586 3.3376,-7.10051 8.26839,-10.75892 13.41992,-10.46679 z m 94.57618,0.86718 c 0.81562,0 1.63125,0.0605 2.25,0.17969 1.23749,0.23838 0.22498,0.43359 -2.25,0.43359 -2.47488,0 -3.48753,-0.1951 -2.25,-0.43359 0.61874,-0.11924 1.43437,-0.17969 2.25,-0.17969 z m -8,0.006 c 0.63437,0 1.26875,0.0638 1.75,0.18946 0.96249,0.25137 0.17499,0.45703 -1.75,0.45703 -1.92499,0 -2.7125,-0.20532 -1.75,-0.45703 0.48124,-0.12567 1.11562,-0.18946 1.75,-0.18946 z m 63.6875,1.87891 c 0.58779,0 1.6278,0.675 2.3125,1.5 1.55552,1.87621 1.06624,1.86355 -1.44141,-0.0332 -1.06753,-0.8075 -1.45889,-1.4668 -0.87109,-1.4668 z m -23.6875,0.12891 c 0.45311,0 0.90625,0.0703 1.25,0.20898 0.68749,0.27723 0.12503,0.50391 -1.25,0.50391 -1.37507,0 -1.93754,-0.22649 -1.25,-0.50391 0.34374,-0.13871 0.79688,-0.20898 1.25,-0.20898 z m 82.85742,0.10742 c -1.12383,0.043 -9.99001,10.35353 -14.91797,17.46484 -4.06541,5.86647 -17.93945,31.91002 -17.93945,33.67578 0,0.26181 -1.52435,3.77834 -3.38868,7.81446 -3.46238,7.49593 -12.61132,31.98322 -12.61132,33.75585 0,2.06363 -4.19532,3.05274 -12.96485,3.05274 -9.55559,0 -16.57679,-1.88486 -15.7832,-4.23633 0.3075,-0.91147 3.39621,-1.26808 11.07031,-1.2832 8.7247,-0.016 10.95666,-0.33173 12.36914,-1.74414 2.93552,-2.93556 0.37568,-3.696 -13.35742,-3.97266 -11.68989,-0.2355 -13.32266,-0.0601 -15.21484,1.64063 -2.97631,2.67515 -2.78353,8.02782 0.45508,12.70117 2.43737,3.51711 2.49082,3.8687 1.0371,6.67968 -0.98411,1.90303 -3.07186,3.57711 -5.82226,4.66993 -4.93092,1.95919 -8.61889,5.05771 -9.86719,8.28906 -1.38467,3.58458 -1.28181,28.37005 0.13086,31.4707 1.95402,4.28844 7.47266,6.05299 25.44727,8.13672 14.3396,1.66231 47.07462,-0.37096 69.5,-4.31641 6.325,-1.1128 11.61242,-2.02551 11.75,-2.02929 0.13719,-0.004 0.25,-0.3566 0.25,-0.78516 0,-0.76101 -13.45034,-3.2207 -17.61133,-3.2207 -2.00531,0 -2.11846,-0.62056 -2.63867,-14.51758 -0.4074,-10.88466 -0.94067,-15.12669 -2.13477,-16.94922 -1.61919,-2.47124 -7.99644,-5.79955 -13.37305,-6.98047 -1.8472,-0.40569 -3.41352,-1.6344 -4.15234,-3.25586 -1.0698,-2.34799 -0.87407,-2.92551 1.99414,-5.88476 4.79841,-4.95065 3.57823,-6.4924 -4.53906,-5.73438 l -6.54492,0.61133 v -4.0332 c 0,-4.32628 5.02573,-19.72725 12.44922,-38.1543 2.83989,-7.04938 4.36793,-12.20048 4.00585,-13.5 -0.37742,-1.35477 -0.27416,-1.65844 0.28907,-0.85351 0.5975,0.85383 2.56014,-1.99057 6.21093,-9 2.93579,-5.63664 6.17162,-11.44243 7.19141,-12.90235 1.01972,-1.45988 1.85352,-2.97599 1.85352,-3.36914 0,-0.39315 1.57501,-3.30769 3.5,-6.47656 1.92499,-3.16891 3.49168,-6.15279 3.47656,-6.63086 -0.003,-0.0924 -0.0442,-0.13568 -0.11914,-0.13281 z m -60.35742,3.26367 2.75,2.42383 c 1.51253,1.33338 2.75,2.57085 2.75,2.75 0,0.78429 -0.81027,0.14644 -3.07618,-2.42383 z m 5.21289,0 2.33789,2.2207 c 1.28621,1.22223 2.13906,2.41575 1.89453,2.65235 -0.24439,0.23641 -1.29618,-0.76403 -2.33789,-2.22266 z m 70.28906,0.5 c 0.0516,0.0516 -0.25115,0.45698 -0.87305,1.25 -0.75492,0.96253 -1.5425,1.75 -1.75,1.75 -0.8231,0 -0.29263,-0.8206 1.37305,-2.12695 0.79304,-0.62193 1.19839,-0.92467 1.25,-0.87305 z m -46.99414,2.01562 c 0.038,0.0843 -0.29611,0.55938 -0.97461,1.48438 -0.80689,1.09999 -1.59428,2.18698 -1.75,2.41601 -0.15572,0.22916 -0.28125,-0.0526 -0.28125,-0.62695 0,-0.57434 0.78747,-1.66117 1.75,-2.41601 0.80944,-0.63478 1.21782,-0.94176 1.25586,-0.85743 z m 40.16797,5.47071 c 0.73391,-0.13347 1.82617,0.28552 1.82617,0.90625 0,0.1508 -0.65623,0.27343 -1.45703,0.27343 -0.80088,0 -1.2204,-0.3823 -0.93164,-0.8496 0.1113,-0.18009 0.31786,-0.28559 0.5625,-0.33008 z m -48.83789,5.89453 c 0.27037,0.007 0.30117,0.39896 0.0449,1.0664 -0.66482,1.73243 -1.38086,2.04978 -1.38086,0.61133 0,-0.51753 0.4446,-1.21478 0.98828,-1.55078 0.14174,-0.0876 0.25753,-0.12922 0.34766,-0.12695 z m -154.41993,1.74219 c 0.34742,0.0143 0.64639,0.10537 0.8125,0.27148 0.3323,0.33245 -0.25838,0.56886 -1.3125,0.52539 -1.165,-0.048 -1.40317,-0.28414 -0.60546,-0.60351 0.36094,-0.14438 0.75805,-0.20768 1.10546,-0.19336 z m 155.83204,0.48242 c 0.26119,-0.0695 0.69966,-0.0405 1.25,0.10351 1.10082,0.28785 2.00195,0.69731 2.00195,0.90821 0,0.78905 -2.90508,0.34748 -3.44336,-0.52344 -0.15411,-0.24932 -0.0698,-0.41877 0.19141,-0.48828 z m -155.06641,3.4082 c 3.12359,-0.0114 4.31552,0.42941 4.71094,1.73633 0.5198,1.71795 2.58254,14.0281 2.59765,15.5 0.004,0.4125 -3.41734,0.75 -7.60351,0.75 H 337 l 0.83594,-3.75 c 0.45932,-2.06249 0.78382,-5.77502 0.7207,-8.25 -0.13379,-5.21836 0.65711,-5.96365 6.34961,-5.98633 z m 97.2832,0.0273 c -15.03032,-0.0652 -32.95387,0.12835 -45.39843,0.61914 -13.21588,0.52124 -16.87064,0.9654 -17.30664,2.10157 -0.30392,0.79211 0.0761,1.86437 0.84374,2.38281 0.8374,0.56553 18.68209,0.82456 44.60938,0.64844 39.92689,-0.27118 43.35009,-0.42979 45,-2.08008 1.55875,-1.55909 1.59641,-1.90647 0.28711,-2.73438 -0.86744,-0.54861 -13.00483,-0.8723 -28.03516,-0.9375 z m -10.46484,1.95899 c 1.37503,0 2.5,0.17191 2.5,0.38281 0,0.2109 -1.12497,0.59865 -2.5,0.86133 -1.37499,0.26283 -2.5,0.0909 -2.5,-0.38281 0,-0.47373 1.12501,-0.86133 2.5,-0.86133 z m -15.58399,0.12305 c 0.34742,0.0143 0.64639,0.10732 0.8125,0.27343 0.3323,0.33211 -0.25838,0.56886 -1.3125,0.52539 -1.165,-0.048 -1.40122,-0.28609 -0.60351,-0.60546 0.36094,-0.14438 0.7561,-0.20768 1.10351,-0.19336 z m -30.0371,0.004 c 0.54375,0.007 1.05017,0.0798 1.38867,0.2168 0.6771,0.2739 -0.11759,0.47983 -1.76758,0.46094 -1.64999,-0.0204 -2.20535,-0.24444 -1.23242,-0.49805 0.4865,-0.12643 1.06757,-0.18649 1.61133,-0.17969 z m 170.11328,2.41992 c 0.1461,-0.0139 0.33074,0.0246 0.55664,0.11133 0.72775,0.27935 1.07826,1.14434 0.77929,1.92383 -0.72079,1.87816 -0.9987,1.78991 -1.59961,-0.50781 -0.25778,-0.98581 -0.17463,-1.48561 0.26368,-1.52735 z m -219.84375,7.03125 c 0.23487,0.18664 0.28458,0.9324 0.0898,1.95118 -0.25969,1.35836 -0.64457,2.4707 -0.85547,2.4707 -0.77367,0 -0.35777,-3.90002 0.4707,-4.41211 0.11761,-0.0727 0.21664,-0.072 0.29493,-0.01 z m 217.1875,1.80274 c 0.27037,0.007 0.30117,0.39899 0.0449,1.0664 -0.66478,1.73243 -1.38086,2.04978 -1.38086,0.61133 0,-0.51753 0.4446,-1.21478 0.98828,-1.55078 0.14174,-0.0876 0.25753,-0.12922 0.34766,-0.12695 z m -65.73047,2.61914 c 0.21611,0 0.39453,0.675 0.39453,1.5 0,0.82499 -0.43606,1.5 -0.96875,1.5 -0.53288,0 -0.71126,-0.67501 -0.39453,-1.5 0.31661,-0.825 0.75256,-1.5 0.96875,-1.5 z m -61.92188,1.11328 c -19.32347,0.045 -38.57068,0.29988 -40.60937,0.72461 -4.16481,0.86767 -5.07488,2.82785 -1.90821,4.10937 2.17202,0.8792 56.06018,1.05498 77.58399,0.25391 8.14787,-0.30323 9.25,-0.56091 9.25,-2.16211 0,-1.26614 -0.98621,-1.99198 -3.25,-2.39258 -2.34261,-0.41442 -21.74293,-0.57825 -41.06641,-0.5332 z m -97.18554,0.91602 c 1.65611,0 1.7421,0.168 0.5,0.9707 -0.825,0.53318 -2.40001,0.96875 -3.5,0.96875 -1.65612,0 -1.74211,-0.16602 -0.5,-0.96875 0.82499,-0.53314 2.4,-0.9707 3.5,-0.9707 z m 28.77929,0.34765 c 0.10513,-0.10514 0.24461,0.0367 0.4043,0.43555 0.28876,0.72189 0.2541,1.58379 -0.0781,1.91601 -0.33218,0.3323 -0.56847,-0.25835 -0.52539,-1.3125 0.024,-0.58248 0.0941,-0.93392 0.19922,-1.03906 z m 192.63867,0.7461 c 0.34741,0.0143 0.64639,0.10732 0.8125,0.27343 0.3323,0.33211 -0.25842,0.56691 -1.3125,0.52344 -1.165,-0.048 -1.40118,-0.28414 -0.60351,-0.60351 0.36096,-0.14438 0.75611,-0.20768 1.10351,-0.19336 z m -200.01953,0.21875 c 0.67942,0.0212 1.10001,0.1426 1.09961,0.36132 v 0.002 c -7.9e-4,0.4374 -1.89268,0.92486 -4.20508,1.08398 -5.00469,0.34439 -4.77678,-0.25688 0.45704,-1.20312 1.03124,-0.18654 1.96902,-0.26539 2.64843,-0.24414 z m 0.0195,2.78125 c 0.34742,0.0143 0.64639,0.10537 0.8125,0.27148 0.3323,0.33249 -0.25838,0.56886 -1.3125,0.52539 -1.165,-0.048 -1.40317,-0.28414 -0.60546,-0.60351 0.36094,-0.14438 0.75805,-0.20768 1.10546,-0.19336 z m 191.41993,10.25781 c 0.27037,0.007 0.30117,0.39896 0.0449,1.0664 -0.66478,1.73243 -1.38086,2.04975 -1.38086,0.61133 0,-0.51757 0.4446,-1.21478 0.98828,-1.55078 0.14174,-0.0876 0.25753,-0.12922 0.34766,-0.12695 z m -118.51563,1.63476 c -33.0263,-0.0134 -37.87426,0.179 -39.25976,1.56446 -0.86914,0.86933 -1.32429,1.99433 -1.01172,2.5 0.3301,0.53404 17.11232,0.91992 40.04101,0.91992 35.27003,0 39.53704,-0.17109 40.08594,-1.60156 0.33793,-0.88052 -0.0136,-1.99829 -0.78125,-2.48438 -0.76762,-0.48605 -18.35103,-0.89088 -39.07422,-0.89844 z m 82.4375,1.87891 c -0.13281,0.23097 0.26896,1.0357 0.89258,1.78711 0.62358,0.75137 0.84362,1.65443 0.49023,2.00781 -0.35338,0.35339 -0.64257,0.0625 -0.64257,-0.64648 0,-1.03249 -0.29861,-1.04005 -1.5,-0.043 -1.81372,1.50542 -2.00011,-0.0379 -0.25,-2.07227 0.68745,-0.79918 1.14242,-1.26413 1.00976,-1.0332 z m -113.3418,1.22852 c 0.34742,0.0143 0.64639,0.10732 0.8125,0.27343 0.3323,0.33249 -0.25838,0.56691 -1.3125,0.52344 -1.165,-0.048 -1.40122,-0.28414 -0.60351,-0.60351 0.36094,-0.14438 0.7561,-0.20768 1.10351,-0.19336 z m 108.36133,13.2539 c 0.10513,-0.10514 0.24461,0.0367 0.4043,0.43555 0.28876,0.72189 0.2541,1.58379 -0.0781,1.91601 -0.33214,0.3323 -0.56847,-0.25831 -0.52539,-1.3125 0.024,-0.58246 0.0941,-0.93392 0.19922,-1.03906 z m -89.71679,1.66992 c -11.92611,-0.0219 -24.26497,0.2707 -25.91602,0.89844 -2.76091,1.04969 -3.54656,3.52423 -1.39453,4.39258 v 0.002 c 1.81927,0.73255 45.57421,0.74911 50,0.0176 2.8591,-0.47259 3.75,-1.08903 3.75,-2.5957 0,-1.34574 -0.47851,-1.79237 -1.5,-1.40039 -0.825,0.31668 -1.5,0.16962 -1.5,-0.32618 0,-0.63078 -11.51334,-0.96636 -23.43945,-0.98828 z m 15.35546,3.07618 c 0.34742,0.0143 0.64639,0.10732 0.8125,0.27343 0.3323,0.33211 -0.25838,0.56691 -1.3125,0.52344 -1.165,-0.048 -1.40122,-0.28414 -0.60351,-0.60351 0.36094,-0.14438 0.7561,-0.20768 1.10351,-0.19336 z m 48.9629,8.0039 c 0.54375,0.007 1.05017,0.0798 1.38867,0.2168 v -0.002 c 0.6771,0.2739 -0.11954,0.47983 -1.76953,0.46093 -1.65003,-0.0204 -2.20336,-0.24444 -1.23047,-0.49804 0.4865,-0.12643 1.06757,-0.18454 1.61133,-0.17774 z m -1.9629,1.9961 c 0.34742,0.0143 0.64639,0.10537 0.8125,0.27148 0.3323,0.33207 -0.25838,0.56886 -1.3125,0.52539 -1.165,-0.048 -1.40317,-0.28414 -0.60546,-0.60351 0.36094,-0.14438 0.75805,-0.20768 1.10546,-0.19336 z m 6.08204,0.006 c 0.45312,0 0.90625,0.0703 1.25,0.20898 0.68749,0.27727 0.12499,0.50391 -1.25,0.50391 -1.37511,0 -1.9375,-0.22649 -1.25,-0.50391 0.34374,-0.13871 0.79687,-0.20898 1.25,-0.20898 z m 6.91796,8.99414 c 0.34742,0.0143 0.64639,0.10537 0.8125,0.27148 0.3323,0.33211 -0.25838,0.56886 -1.3125,0.52539 -1.165,-0.048 -1.40317,-0.28414 -0.60546,-0.60351 0.36094,-0.14438 0.75805,-0.20768 1.10546,-0.19336 z m -13,6 c 0.34742,0.0143 0.64639,0.10537 0.8125,0.27148 0.3323,0.33211 -0.25838,0.56886 -1.3125,0.52539 -1.165,-0.048 -1.40317,-0.28414 -0.60546,-0.60351 0.36094,-0.14438 0.75805,-0.20768 1.10546,-0.19336 z m 0.50196,2.21484 c 9.82792,-0.22177 28.14351,0.27359 29.41992,1.0625 1.54987,0.95766 1.48456,3.58677 -0.0898,3.64648 -1.85821,0.0704 -10.3195,0.77758 -18.25,1.52539 -3.85002,0.36303 -8.35001,1.3945 -10,2.29297 -2.87301,1.56443 -2.08675,1.6559 18.54882,2.13477 18.39262,0.42675 21.9437,0.76004 24.25,2.27344 l 2.70118,1.77148 v 14.36133 14.35937 l -2.75,0.58985 c -4.87091,1.04356 -46.44523,1.53809 -56.12305,0.66797 -5.70301,-0.51277 -9.92302,-1.39177 -10.77734,-2.2461 -1.05374,-1.05373 -1.40859,-4.52167 -1.41993,-13.89648 -0.009,-6.87062 0.26872,-13.23605 0.61719,-14.14453 0.34859,-0.90845 3.62148,-3.13221 7.27149,-4.94336 3.89601,-1.93323 7.13162,-4.2927 7.83593,-5.71289 0.65991,-1.33055 1.87903,-2.80007 2.71094,-3.26563 0.44425,-0.24862 2.77871,-0.40264 6.05469,-0.47656 z m -98.88281,3.05859 c 0.10159,-0.0241 0.19252,-8.3e-4 0.26953,0.0762 0.30791,0.30789 0.002,1.11466 -0.68164,1.79297 -0.98763,0.98026 -1.10325,0.86659 -0.56055,-0.55859 0.28162,-0.73962 0.66787,-1.23812 0.97266,-1.31055 z m 131.61132,0.12696 c 0.3047,0.0335 0.51953,0.41892 0.51953,1.01953 0,1.6862 -0.3164,1.83378 -1.125,0.52539 -0.3163,-0.51201 -0.19191,-1.16632 0.2754,-1.45508 0.11682,-0.0722 0.22851,-0.10102 0.33007,-0.0898 z m 10.35157,3.50586 c 0.54999,0 1.675,0.43752 2.5,0.9707 0.82507,0.53314 1.04999,0.96875 0.5,0.96875 -0.55,0 -1.67501,-0.43561 -2.5,-0.96875 -0.82504,-0.53318 -1.05,-0.9707 -0.5,-0.9707 z m -17.9336,0.01 c 3.58222,0.0679 6.4336,0.3915 6.4336,0.92969 0,0.58605 -3.25952,0.77685 -8.25,0.48242 -5.61461,-0.33109 -7.61109,-0.18483 -6.25,0.46094 1.5897,0.75413 1.1281,0.9291 -2.25,0.85351 -5.2554,-0.11743 -5.5321,-1.29324 -0.5,-2.125 2.92114,-0.48279 7.23419,-0.66944 10.8164,-0.60156 z m 27.90039,8.42188 c 0.0603,0.0225 0.12596,0.11718 0.19532,0.28906 0.27741,0.68749 0.27741,1.8125 0,2.5 -0.27723,0.68753 -0.50391,0.12499 -0.50391,-1.25 0,-1.03133 0.12773,-1.60647 0.30859,-1.53906 z m -40.4707,1.62695 c -11.46116,-0.0934 -22.5852,0.62196 -24.79883,1.80664 -2.0104,1.07603 -2.19726,1.93151 -2.19726,10.08984 0,7.43562 0.29038,9.08538 1.75,9.93555 2.6242,1.52852 47.51217,1.41751 49.05078,-0.12109 1.49699,-1.49692 1.58807,-13.38572 0.13476,-17.55469 l -1.06445,-3.05469 -11.61914,-0.72656 c -3.57799,-0.22357 -7.43547,-0.34386 -11.25586,-0.375 z m 49.92187,30.03516 c 0.34741,0.0143 0.64639,0.10537 0.8125,0.27148 0.33234,0.33245 -0.25838,0.56886 -1.3125,0.52539 -1.165,-0.048 -1.40317,-0.28414 -0.60546,-0.60351 0.36094,-0.14438 0.75806,-0.20768 1.10546,-0.19336 z m -33.0371,0.004 c 0.54374,0.007 1.05015,0.0798 1.38867,0.2168 0.6771,0.2739 -0.11954,0.47983 -1.76953,0.46094 -1.64999,-0.0204 -2.2034,-0.24444 -1.23047,-0.49805 0.4865,-0.12643 1.06758,-0.18649 1.61133,-0.17969 z m -36.88086,4.00196 c 0.45312,0 0.90625,0.0703 1.25,0.20898 0.68749,0.27723 0.12499,0.50391 -1.25,0.50391 -1.37511,0 -1.9375,-0.22649 -1.25,-0.50391 0.34374,-0.13871 0.79687,-0.20898 1.25,-0.20898 z m 39,0 c 0.45312,0 0.90625,0.0703 1.25,0.20898 0.68749,0.27723 0.12499,0.50391 -1.25,0.50391 -1.37511,0 -1.9375,-0.22649 -1.25,-0.50391 0.34374,-0.13871 0.79687,-0.20898 1.25,-0.20898 z" />
  </g>
</svg>