<?xml version='1.0' encoding='utf-8'?>
<svg xmlns="http://www.w3.org/2000/svg" viewBox="76.95 113.50 49.91 68.57" version="1.1" id="svg5">
  <defs id="defs2" />
  <g id="layer1">
    <path id="path836" style="fill:#DEA843;stroke-width:0.264583" d="m 116.41792,118.22656 c -0.40066,0.01 -0.80414,0.055 -1.20303,0.14056 -1.53019,0.32817 -3.39939,1.62816 -3.62303,2.51923 -0.1694,0.67493 0.47782,1.95853 0.98753,1.95853 0.15622,0 0.81428,-0.4666 1.46245,-1.03714 1.35263,-1.19064 2.75874,-1.55323 4.19096,-1.08056 0.97356,0.32131 1.45882,0.92422 1.45882,1.8123 0,0.55618 -1.44308,2.04169 -3.50314,3.60649 -1.44789,1.0998 -1.81659,2.02242 -1.11725,2.79518 0.73886,0.81642 1.27567,0.6334 3.33417,-1.13533 3.64534,-3.13221 3.85743,-3.46442 3.67264,-5.75469 -0.17692,-2.19265 -2.85547,-3.89228 -5.66012,-3.82457 z m -16.669267,4.67982 c -3.83765,-0.0364 -7.243679,2.03308 -8.994801,5.7366 -0.732033,1.54821 -0.821565,1.99465 -0.798917,3.992 0.04078,3.59802 1.451626,6.45619 4.236951,8.58294 1.988563,1.51838 3.82447,2.10096 6.595984,2.09496 l 2.3952,-0.006 1.15807,2.2102 c 0.88901,1.69702 1.08492,2.28284 0.84542,2.52233 -0.79849,0.79849 -0.24277,2.31883 2.72387,7.45743 1.58306,2.74207 1.69137,3.06699 1.02216,3.06699 -0.6098,0 -8.33659,1.9764 -10.275343,2.62827 -0.873125,0.29356 -1.675525,0.53653 -1.782837,0.54053 -0.10731,0.004 -0.610309,-0.81806 -1.117761,-1.82573 -1.019873,-2.0252 -1.637138,-2.43127 -2.668571,-1.75545 -0.881462,0.57756 -0.820844,1.14052 0.380338,3.52744 1.36884,2.72006 1.86531,3.16056 3.149679,2.79363 0.539298,-0.15408 3.750735,-1.08297 7.135995,-2.06396 3.84384,-1.11387 6.39093,-1.72424 6.78357,-1.62574 0.66668,0.16733 1.07185,1.12979 0.78755,1.87069 -0.26221,0.68329 -2.21922,1.89638 -6.80217,4.21679 -8.682501,4.39606 -11.644607,4.65449 -14.775842,1.28985 -1.453198,-1.56152 -3.954529,-6.48129 -4.610055,-9.06715 -0.646147,-2.54887 -0.403643,-5.59865 0.590661,-7.42745 1.273527,-2.34236 3.303696,-3.40102 8.604642,-4.48707 2.701247,-0.55343 3.754114,-1.21907 3.235978,-2.04587 -0.425229,-0.67857 -2.103928,-0.70364 -5.300968,-0.0791 -6.428281,1.25585 -9.367032,3.52688 -10.303763,7.96283 -0.798563,3.78164 0.0089,7.22524 3.091283,13.18162 1.695286,3.27593 1.830639,3.66077 1.859317,5.29167 0.01701,0.96734 0.10631,2.52981 0.198438,3.47214 0.144494,1.47786 0.258334,1.75888 0.828892,2.04638 v 5.3e-4 c 1.758394,0.88605 2.466988,-0.0122 2.213816,-2.80603 l -0.17725,-1.95699 0.767914,0.16589 c 0.422172,0.0912 1.600831,0.30352 2.619477,0.4718 2.846242,0.4702 5.120522,-0.20771 11.72487,-3.49488 2.95633,-1.47144 5.40986,-2.63388 5.45186,-2.58278 0.042,0.0511 -0.0952,2.09766 -0.30489,4.54752 -0.20972,2.44986 -0.31088,4.73631 -0.22428,5.08135 0.11706,0.46642 0.40598,0.67384 1.125,0.80873 1.88228,0.35312 2.065,-0.0823 2.33887,-5.5609 0.12849,-2.5702 0.29293,-3.85881 0.49196,-3.86281 1.4536,-0.0259 3.83593,-0.60867 4.80074,-1.17409 2.25014,-1.31867 3.24562,-4.22115 2.41588,-7.04453 -0.23167,-0.78828 -1.75368,-3.87429 -3.38223,-6.85746 -2.2313,-4.08732 -3.0175,-5.78257 -3.1905,-6.87917 -0.50842,-3.2227 -2.27942,-5.47589 -4.90926,-6.24561 -0.76398,-0.22361 -1.38906,-0.4427 -1.38906,-0.4868 0,-0.0441 0.29136,-0.60147 0.6475,-1.23868 2.65957,-4.75849 -0.14042,-12.30875 -5.27719,-14.23065 -1.32973,-0.49752 -2.65698,-0.7439 -3.936197,-0.75603 z m 0.09922,2.58433 c 4.201397,0 7.263297,3.35566 7.242447,7.9375 -0.0146,3.20624 -1.30405,5.45241 -3.86126,6.72673 -2.84319,1.41682 -6.880877,0.28953 -8.771556,-2.44843 -3.773694,-5.46483 -0.794803,-12.2158 5.390369,-12.2158 z m 16.597437,5.60948 c -0.52536,-0.0539 -1.08405,0.0728 -1.52704,0.4315 -0.77398,0.62673 -0.54445,1.72213 0.47697,2.27635 0.39834,0.21613 0.93287,0.39759 1.18753,0.40359 0.6205,0.0142 1.52135,-0.91981 1.52135,-1.57717 0,-0.85347 -0.78322,-1.44447 -1.65881,-1.53427 z m -9.22269,10.27018 c 1.50973,0.005 3.12347,0.86479 3.80028,2.02365 0.26884,0.4603 0.60374,1.59097 0.74466,2.51302 0.25993,1.70084 0.47691,2.17915 4.36149,9.61388 2.40634,4.60552 2.74264,5.78149 2.11977,7.41247 -0.25739,0.67395 -0.8001,1.42919 -1.26556,1.76062 -0.91031,0.6482 -3.64164,1.03533 -3.64164,0.51624 0,-0.16407 0.23813,-0.74269 0.52917,-1.28571 1.01472,-1.89325 1.26942,-1.28021 -5.7025,-13.71905 -0.73431,-1.31012 -0.74306,-1.37077 -0.32349,-2.23708 0.48693,-1.00539 0.32896,-1.61006 -0.95188,-3.63905 -0.38219,-0.60543 -0.69505,-1.20783 -0.69505,-1.33842 0,-0.1306 -0.1799,-0.38684 -0.39997,-0.56947 -0.66011,-0.54785 0.0289,-1.05611 1.42472,-1.0511 z" />
  </g>
</svg>